<?xml version="1.0" standalone="no"?><!DOCTYPE svg PUBLIC "-//W3C//DTD SVG 1.1//EN" "http://www.w3.org/Graphics/SVG/1.1/DTD/svg11.dtd"><svg t="1580992057595" class="icon" viewBox="0 0 1024 1024" version="1.1" xmlns="http://www.w3.org/2000/svg" p-id="1327" xmlns:xlink="http://www.w3.org/1999/xlink" width="128" height="128"><defs><style type="text/css"></style></defs><path d="M600.50125531 992c-27.63593344 0-53.604375-10.77448969-73.13155594-30.30073313L62.88562063 497.22174969c-21.37088906-21.34183125-32.29066313-50.87864906-29.97829501-81.00410438l20.581665-267.51478406c3.92174531-51.17390531 43.94154656-91.19276813 95.11545188-95.11545187L416.12391406 33.00668094c30.59223938-2.28331031 59.66414625 8.5774125 81.03503531 29.97735844l464.51219813 464.47939218c40.31411906 40.31037 40.28412469 105.88806656 0 146.17031625L673.5728225 961.69926687c-19.52718094 19.52624344-45.4956225 30.30073313-73.07156719 30.30073313zM424.08644469 73.64042656c-1.61031563 0-3.19157344 0.08904563-4.80188906 0.20433563L151.76508406 94.39549625c-30.91374 2.37329344-55.06753125 26.55332906-57.43801219 57.46800656L73.71728656 419.37922531c-1.37411063 18.14932125 5.21149781 36.00901031 18.12120188 48.89059407l464.51219812 464.50657406c23.56702875 23.56702875 64.67130844 23.56702875 88.26739407 0L932.71734219 644.67994344c24.3262575-24.327195 24.3262575-63.9373875 0-88.29270188L468.20420656 91.90784938c-11.79804281-11.76898594-27.45971719-18.26742281-44.11776187-18.26742282z" p-id="1328"></path><path d="M271.456776 358.777977c-23.3885 0-45.342277-9.056258-61.766117-25.481098-16.455834-16.456834-25.512092-38.378617-25.512092-61.765117 0-23.3905 9.056258-45.311283 25.512092-61.769117 16.42384-16.42484 38.377617-25.479098 61.766117-25.479098 23.357506 0 45.312283 9.055258 61.738123 25.479098 16.454834 16.457834 25.511092 38.378617 25.511092 61.769117 0 23.387501-9.056258 45.308283-25.511092 61.765117-16.42584 16.42484-38.379616 25.481098-61.738123 25.481098z m0-130.840828c-11.739741 0-22.701633 4.496135-30.882058 12.708555-8.21242 8.21242-12.709555 19.174311-12.709555 30.885058 0 11.738742 4.497135 22.701633 12.709555 30.882059 16.362852 16.393846 45.308283 16.393846 61.734123 0 8.21242-8.180426 12.709555-19.142317 12.709555-30.882059 0-11.710747-4.497135-22.671638-12.709555-30.885058-8.21242-8.182426-19.171312-12.708555-30.852065-12.708555z" p-id="1329"></path></svg>