<?xml version="1.0" standalone="no"?><!DOCTYPE svg PUBLIC "-//W3C//DTD SVG 1.1//EN" "http://www.w3.org/Graphics/SVG/1.1/DTD/svg11.dtd"><svg t="1580992006956" class="icon" viewBox="0 0 1024 1024" version="1.1" xmlns="http://www.w3.org/2000/svg" p-id="1058" xmlns:xlink="http://www.w3.org/1999/xlink" width="128" height="128"><defs><style type="text/css"></style></defs><path d="M879.979209 510.80280599a28.383476 28.383476 0 0 0 28.383476-28.383476V227.466875c0-62.81943401-49.550533-113.949597-110.457781-113.949598h-129.064173A170.650039 170.650039 0 0 0 508.732651 0c-72.247337 0-136.21408199 46.75708-159.991686 113.517277H224.21615401C163.325533 113.517277 113.775 164.647441 113.775 227.466875v680.172512c0 62.81943401 49.550533 113.966225 110.44115399 113.966225h573.65549401c60.907249 0 110.457781-51.146791 110.45778199-113.966225V652.670304a28.383476 28.383476 0 0 0-56.76695299 0v254.969083c0 31.592621-24.11015799 57.2159-53.690829 57.2159h-573.65549401c-29.564043 0-53.690829-25.65653399-53.69082899-57.2159V227.466875c0-31.592621 24.12678601-57.199273 53.69082899-57.19927299h142.58248901a27.535464 27.535464 0 0 0 16.62769499-5.95271501 27.917901 27.917901 0 0 0 14.53260601-18.672902 113.517277 113.517277 0 0 1 221.963107 1.92881301 28.366849 28.366849 0 0 0 27.751624 22.696804c1.19719401 0 2.394388-0.232788 3.57495499-0.34918201a13.5682 13.5682 0 0 0 1.66276901 0.34918201h144.943622c29.58067001 0 53.690829 25.65653399 53.69082899 57.19927299v254.95245501a28.383476 28.383476 0 0 0 28.38347602 28.383476" p-id="1059"></path><path d="M707.38373 554.5669a28.383476 28.383476 0 1 0 0-56.750324h-166.177189v-31.858665l138.009872-130.244739a28.383476 28.383476 0 0 0-38.925435-41.26994l-130.544037 123.161341-130.544038-123.161341a28.433359 28.433359 0 0 0-38.925435 41.319823l144.16212 136.097688v25.939205H310.098201a28.383476 28.383476 0 0 0 0 56.766952h174.358015v79.812939H310.098201a28.383476 28.383476 0 1 0 0 56.750325h174.358015v124.707716a28.383476 28.383476 0 0 0 56.750325 0v-124.707716H707.38373a28.383476 28.383476 0 1 0 0-56.750325h-166.177189v-79.812939z" p-id="1060"></path></svg>