<?xml version="1.0" standalone="no"?><!DOCTYPE svg PUBLIC "-//W3C//DTD SVG 1.1//EN" "http://www.w3.org/Graphics/SVG/1.1/DTD/svg11.dtd"><svg t="1580992047918" class="icon" viewBox="0 0 1024 1024" version="1.1" xmlns="http://www.w3.org/2000/svg" p-id="1193" xmlns:xlink="http://www.w3.org/1999/xlink" width="128" height="128"><defs><style type="text/css"></style></defs><path d="M53.19945443 943.22688v-862.45376c0-15.23347911 12.23338667-27.57366557 27.31152157-27.57366557 15.0781349 0 27.31152157 12.34018645 27.31152157 27.57366557v862.45376c0 15.23347911-12.23338667 27.57366557-27.31152157 27.57366557-15.08784355 0-27.31152157-12.34018645-27.31152157-27.57366557zM227.98153955 206.13620622c0-54.21526243 45.62276466-98.31370866 101.70216335-98.31370865h430.178304c56.07939755 0 101.70216334 44.09844622 101.7021622 98.31370865 0 54.20555378-45.62276466 98.31370866-101.7021622 98.31370866H329.6837029c-56.07939755 0-101.70216334-44.10815488-101.70216335-98.31370866z m578.27024555 0c0-24.14637511-20.81617579-43.78775666-46.3897782-43.78775665H329.66428445c-25.57360355 0-46.38006955 19.64138155-46.38006955 43.78775665 0 24.14637511 20.80646599 43.78775666 46.38006955 43.78775666H759.87171555c25.57360355 0 46.38006955-19.64138155 46.38006955-43.78775666zM227.98153955 512c0-54.20555378 45.37033045-98.31370866 101.12932978-98.31370866H869.68092445c55.75899933 0 101.12932978 44.09844622 101.12932977 98.31370866s-45.37033045 98.31370866-101.12932977 98.31370866H329.11086933c-55.75899933 0-101.12932978-44.09844622-101.12932978-98.31370866z m687.80760178 0c0-24.14637511-20.68024889-43.78775666-46.11792554-43.78775666H329.11086933c-25.43767666 0-46.11792555 19.64138155-46.11792554 43.78775666 0 24.14637511 20.68024889 43.78775666 46.11792554 43.78775666H869.68092445c25.43767666 0 46.11792555-19.64138155 46.11792554-43.78775666zM227.98153955 817.86379378c0-54.20555378 45.09847666-98.31370866 100.54678756-98.31370866h366.95305444c55.4386011 0 100.5370789 44.10815488 100.5370789 98.31370866 0 54.21526243-45.09847666 98.31370866-100.5370789 98.31370865H328.51861845c-55.4386011 0-100.5370789-44.09844622-100.5370789-98.31370865z m513.35562468 0c0-24.14637511-20.5831589-43.78775666-45.85578268-43.78775666H328.51861845c-25.28233245 0-45.85578155 19.64138155-45.85578268 43.78775666 0 24.14637511 20.5831589 43.78775666 45.85578268 43.78775665h366.9627631c25.28233245 0 45.85578155-19.64138155 45.85578268-43.78775665z" p-id="1194"></path></svg>